<svg width="59" height="59" viewBox="0 0 59 59" fill="none" xmlns="http://www.w3.org/2000/svg">
<g filter="url(#filter0_d_113_6295)">
<rect x="1.82715" width="55.3462" height="55" rx="9.16666" fill="#0C0C0C" shape-rendering="crispEdges"/>
<path d="M18.9475 37.9734L21.6288 30.3541V40.8672H17.4873L18.9475 37.9734Z" fill="white" stroke="white" stroke-width="1.70941"/>
<path d="M26.6728 16.0446C23.9543 16.0446 22.5667 16.3012 21.5225 16.7348L23.5401 15.3808C23.5401 15.3808 25.333 14.2266 26.6728 13.9472C28.0126 13.6679 30.3215 13.7012 31.7701 13.9472C33.1772 14.1862 33.363 14.7171 33.7347 15.3808C34.1063 16.0446 34.5282 17.4433 34.6373 18.8322C34.7072 19.7216 34.6849 20.2323 34.5577 21.1153C34.3272 22.7154 34.0253 23.6416 33.1772 25.0179C32.0371 26.868 29.0356 28.7346 29.0356 28.7346L28.9294 28.4692C29.3542 28.1506 30.7347 27.6462 32.009 26.3188C33.6785 24.5797 34.6639 21.1418 34.3984 18.9118C34.1329 16.6817 30.071 16.0446 26.6728 16.0446Z" fill="white" stroke="white" stroke-width="1.70941"/>
<path d="M36.0444 36.354L38.832 40.8937H31.5312C34.7435 36.6637 43.823 30.8585 38.832 24.2745L29.779 31.5222L28.1064 28.7346M28.1064 28.7346V22.1772C29.5931 22.5312 32.5666 23.6055 32.5666 25.0709C32.5666 26.5364 29.5931 28.124 28.1064 28.7346Z" stroke="white" stroke-width="1.70941"/>
<path d="M36.2041 35.9823C39.974 33.1682 42.4164 28.7346 39.4961 25.3364" stroke="white" stroke-width="1.70941"/>
<path d="M27.2444 33.5664L26.4096 33.7498L27.2444 33.5664ZM32.59 33.062L31.8273 32.6761L31.8045 32.7212L31.7872 32.7687L32.59 33.062ZM34.2526 31.6691C34.4657 31.2479 34.297 30.7337 33.8758 30.5206C33.4546 30.3075 32.9404 30.4762 32.7273 30.8974L34.2526 31.6691ZM27.1183 31.2833L26.2636 31.2833C26.2636 31.6448 26.2578 31.902 26.2524 32.1019C26.2472 32.2934 26.2412 32.4632 26.2434 32.6155C26.2485 32.9658 26.2967 33.2361 26.4096 33.7498L27.2444 33.5664L28.0792 33.383C27.9699 32.8855 27.9551 32.7575 27.9527 32.5907C27.9511 32.4845 27.9553 32.366 27.9612 32.1481C27.9668 31.9385 27.973 31.6651 27.973 31.2832L27.1183 31.2833ZM27.2444 33.5664L26.4096 33.7498C26.7633 35.3603 28.3641 36.0418 29.7436 35.9902C31.1833 35.9363 32.7498 35.1149 33.3927 33.3553L32.59 33.062L31.7872 32.7687C31.4212 33.7701 30.5453 34.2496 29.6796 34.282C28.7538 34.3166 28.1861 33.8698 28.0792 33.383L27.2444 33.5664ZM32.59 33.062L33.3526 33.4479L34.2526 31.6691L33.4899 31.2833L32.7273 30.8974L31.8273 32.6761L32.59 33.062Z" fill="white"/>
</g>
<defs>
<filter id="filter0_d_113_6295" x="0.299371" y="0" width="58.4013" height="58.0555" filterUnits="userSpaceOnUse" color-interpolation-filters="sRGB">
<feFlood flood-opacity="0" result="BackgroundImageFix"/>
<feColorMatrix in="SourceAlpha" type="matrix" values="0 0 0 0 0 0 0 0 0 0 0 0 0 0 0 0 0 0 127 0" result="hardAlpha"/>
<feOffset dy="1.52778"/>
<feGaussianBlur stdDeviation="0.763889"/>
<feComposite in2="hardAlpha" operator="out"/>
<feColorMatrix type="matrix" values="0 0 0 0 1 0 0 0 0 1 0 0 0 0 1 0 0 0 0.25 0"/>
<feBlend mode="normal" in2="BackgroundImageFix" result="effect1_dropShadow_113_6295"/>
<feBlend mode="normal" in="SourceGraphic" in2="effect1_dropShadow_113_6295" result="shape"/>
</filter>
</defs>
</svg>
